Coordinates
version=1
nRows=24
nColumns=24
inDegrees=yes

Units are S.I. units (second, meters, Newtons, ...)
Angles are in degrees.

endheader
time	pelvis_tilt	pelvis_list	pelvis_rotation	pelvis_tx	pelvis_ty	pelvis_tz	hip_flexion_r	hip_adduction_r	hip_rotation_r	knee_angle_r	ankle_angle_r	subtalar_angle_r	mtp_angle_r	hip_flexion_l	hip_adduction_l	hip_rotation_l	knee_angle_l	ankle_angle_l	subtalar_angle_l	mtp_angle_l	lumbar_extension	lumbar_bending	lumbar_rotation
      1.11216667	     -7.15809156	     -0.50342405	     -5.24896390	      0.00622698	      1.02357108	      0.29576389	     -7.90128749	      0.80931212	      1.08434725	    -15.60926710	     20.77928934	      4.85868863	      7.43643368	     33.84680331	     -3.76115912	     -2.42687684	     -3.87155112	     10.75479724	      4.82865160	      3.84001303	    -12.53998696	      1.74818951	      6.07022969
      1.11633333	     -7.16529744	     -0.48142583	     -5.39072903	      0.01231117	      1.02280577	      0.29551793	     -8.04297077	      0.68407458	      1.08009827	    -16.00171855	     20.59374300	      4.99229888	      7.48387076	     33.85089375	     -3.75809715	     -2.42643418	     -4.38066341	     10.55990917	      4.70789412	      3.84832038	    -12.49690364	      1.61436052	      6.07269199
      1.12050000	     -7.19233315	     -0.42624157	     -5.52997548	      0.01844549	      1.02203151	      0.29525873	     -8.13464968	      0.51430274	      1.00907056	    -16.45241725	     20.45782344	      5.31009582	      7.61858973	     33.86113419	     -3.72091745	     -2.41093545	     -4.88445361	     10.26986104	      4.54790656	      3.87647702	    -12.41823560	      1.39632857	      6.10343786
      1.12466667	     -7.21998187	     -0.39264484	     -5.63920327	      0.02456097	      1.02128217	      0.29492930	     -8.22187814	      0.37282029	      0.94181917	    -16.90587012	     20.22917666	      5.50089127	     10.26006139	     33.88246698	     -3.68371541	     -2.31173989	     -5.42030430	      9.91384864	      4.26360866	      4.53933338	    -12.35913650	      1.23835935	      6.10506965
      1.12883333	     -7.23103189	     -0.32465552	     -5.76440450	      0.03076109	      1.02063231	      0.29465608	     -8.32034691	      0.19342406	      0.91365001	    -17.37144276	     19.97950733	      5.68245403	     10.29704254	     33.88593442	     -3.62964500	     -2.37647890	     -5.98791486	      9.57830542	      4.18945150	      4.54068987	    -12.29975919	      1.00893369	      6.09028540
      1.13300000	     -7.25330817	     -0.25693564	     -5.87537888	      0.03696127	      1.01999432	      0.29434354	     -8.38161351	      0.01260310	      0.84649447	    -17.88704290	     19.72035266	      5.90051261	     10.37320946	     33.90918892	     -3.56884156	     -2.42278668	     -6.57984467	      9.18882670	      4.07094722	      4.54795901	    -12.22308501	      0.78956213	      6.07434352
      1.13716667	     -7.27213895	     -0.17945335	     -5.97200557	      0.04315681	      1.01939082	      0.29396688	     -8.41448756	     -0.18717752	      0.71756835	    -18.46595483	     19.48945752	      6.17668094	     10.57020204	     33.93716167	     -3.48768228	     -2.45865933	     -7.19457576	      8.76897040	      3.88399441	      4.57614510	    -12.14732728	      0.57443419	      6.05280357
      1.14133333	     -7.26402517	     -0.09387319	     -6.06808920	      0.04937029	      1.01892029	      0.29360934	     -8.47596052	     -0.39246478	      0.65202344	    -19.02525565	     19.08978429	      6.33053331	     12.99380826	     33.91267777	     -3.39509443	     -2.43556512	     -7.76856497	      8.24945538	      3.57540544	      4.97238487	    -12.11873344	      0.33656116	      5.98688050
      1.14550000	     -7.32667683	     -0.01317631	     -6.13506535	      0.05561434	      1.01834968	      0.29320455	     -8.43713406	     -0.58043724	      0.55219667	    -19.64834143	     18.72400765	      6.48594833	     13.07574667	     34.02125552	     -3.31221587	     -2.56071943	     -8.46403891	      7.82784055	      3.56653512	      4.97321087	    -11.97954668	      0.10503563	      5.93967638
      1.14966667	     -7.35187446	      0.07252683	     -6.19660425	      0.06183946	      1.01790250	      0.29275301	     -8.40889431	     -0.78714069	      0.41430275	    -20.31806670	     18.31672135	      6.73955731	     13.35724781	     34.08088865	     -3.21467420	     -2.63386649	     -9.14499182	      7.37174404	      3.46414238	      4.98843744	    -11.90371549	     -0.12253474	      5.87379787
      1.15383333	     -7.39728372	      0.18190793	     -6.25226828	      0.06808527	      1.01747916	      0.29230944	     -8.33707784	     -1.01035347	      0.30889632	    -21.02651382	     17.90792291	      6.87449904	     13.63046333	     34.17204798	     -3.09883744	     -2.74085573	     -9.85235910	      6.90304346	      3.34391782	      4.99658307	    -11.78698019	     -0.39185865	      5.78044385
      1.15800000	     -7.43688864	      0.29451046	     -6.29183630	      0.07433298	      1.01712113	      0.29181920	     -8.24679928	     -1.24109888	      0.17593625	    -21.77732472	     17.43953608	      7.04484344	     13.98012593	     34.26253054	     -2.97281484	     -2.83770220	    -10.57261930	      6.44967385	      3.23692039	      5.00257706	    -11.68071192	     -0.65919801	      5.67906987
      1.16216667	     -7.41279097	      0.40677950	     -6.31205369	      0.08056949	      1.01694317	      0.29128088	     -8.21138154	     -1.47854112	      0.03124366	    -22.53306157	     16.80845168	      7.15186404	     17.62900088	     34.27903494	     -2.82767469	     -2.88463959	    -11.28150066	      6.00939395	      3.08013045	      5.07821215	    -11.67333381	     -0.92859869	      5.54083494
      1.16633333	     -7.47415436	      0.50781027	     -6.32192263	      0.08679630	      1.01665848	      0.29072949	     -8.04963354	     -1.68737131	     -0.09168851	    -23.36737046	     16.24577765	      7.24014871	     17.68662838	     34.42370793	     -2.70736269	     -2.98865110	    -12.07361230	      5.63373034	      3.04837330	      5.06752483	    -11.53927764	     -1.17990341	      5.46778486
      1.17050000	     -7.51012127	      0.62966243	     -6.32178591	      0.09301877	      1.01647198	      0.29013758	     -7.87998666	     -1.92802234	     -0.24921062	    -24.26063186	     15.66530031	      7.38514552	     17.81010016	     34.53389403	     -2.55789623	     -3.07619638	    -12.85210695	      5.28068120	      2.99147010	      5.05085370	    -11.44644908	     -1.45452765	      5.34440666
      1.17466667	     -7.49204952	      0.76511983	     -6.29838653	      0.09922979	      1.01643294	      0.28948740	     -7.74524804	     -2.19324069	     -0.44174233	    -25.18365556	     14.99929859	      7.52735910	     20.15303983	     34.58003961	     -2.37368988	     -3.12518565	    -13.61705669	      4.96503526	      2.88867499	      4.80976258	    -11.42800264	     -1.74048525	      5.10567966
      1.17883333	     -7.55322056	      0.87844627	     -6.27108597	      0.10542308	      1.01631049	      0.28882903	     -7.49293125	     -2.41749342	     -0.58837408	    -26.17089804	     14.32762248	      7.59837994	     20.21204224	     34.72457684	     -2.22215000	     -3.18240152	    -14.41674689	      4.69123047	      2.85659654	      4.79522410	    -11.30385226	     -2.00571161	      5.05582083
      1.18300000	     -7.56017970	      1.00648939	     -6.22626347	      0.11160277	      1.01633759	      0.28814062	     -7.27583333	     -2.66385585	     -0.75014473	    -27.18937269	     13.60068034	      7.68573958	     20.28016153	     34.79690247	     -2.03910580	     -3.21288030	    -15.18616299	      4.45521723	      2.81849328	      4.77874336	    -11.25972051	     -2.30376227	      4.93434493
      1.18716667	     -7.56416718	      1.13772576	     -6.16746428	      0.11775695	      1.01640568	      0.28741159	     -7.02693176	     -2.91681477	     -0.93188112	    -28.27020810	     12.86587243	      7.77252125	     20.36638620	     34.86186082	     -1.84393830	     -3.23222874	    -15.94684036	      4.25654062	      2.77619305	      4.75823016	    -11.21509883	     -2.59229816	      4.79258918
      1.19133333	     -7.58257063	      1.26968503	     -6.09239641	      0.12387126	      1.01648032	      0.28661742	     -6.72396811	     -3.17523215	     -1.14128530	    -29.41226191	     12.10492545	      7.83847969	     23.21845070	     34.93683681	     -1.63356531	     -3.21608367	    -16.69551175	      4.09003904	      2.68621234	      4.15189827	    -11.15519351	     -2.84687532	      4.59018050
      1.19550000	     -7.54130583	      1.39619764	     -6.00555704	      0.12996426	      1.01671389	      0.28583011	     -6.47130783	     -3.42503113	     -1.32602168	    -30.57214693	     11.29694838	      7.85445141	     23.22034762	     34.93541641	     -1.42048091	     -3.22203505	    -17.41929479	      3.97067705	      2.65801675	      4.14661401	    -11.17369417	     -3.13184818	      4.48067190
      1.19966667	     -7.56828107	      1.54528454	     -5.91636494	      0.13602416	      1.01685813	      0.28502373	     -6.09437676	     -3.69716121	     -1.51233072	    -31.82259155	     10.54188460	      7.93348737	     23.26954371	     34.98450213	     -1.18517507	     -3.19369678	    -18.09024989	      3.83858184	      2.63030200	      4.12296773	    -11.11032062	     -3.42255482	      4.26347463
      1.20383333	     -7.55652571	      1.68479610	     -5.81070552	      0.14204317	      1.01711560	      0.28418804	     -5.74180713	     -3.95866088	     -1.69369361	    -33.09015828	      9.72391199	      7.94667056	     23.33272333	     34.97705619	     -0.94237703	     -3.14801484	    -18.72958487	      3.74592626	      2.58078765	      4.08947475	    -11.10203213	     -3.70736366	      4.07923633
      1.20800000	     -7.53568331	      1.81975216	     -5.69147535	      0.14801273	      1.01741901	      0.28331993	     -5.37297577	     -4.21498098	     -1.87447642	    -34.39301842	      8.88961504	      7.95466555	     23.47939537	     34.94149316	     -0.68818311	     -3.05928427	    -19.32932219	      3.69374556	      2.49292674	      4.00502102	    -11.10847493	     -3.97668675	      3.85293934
